<svg xmlns="http://www.w3.org/2000/svg" viewBox="0 0 240 240" role="img" aria-label="Tiger">
  <circle cx="120" cy="120" r="112" fill="#dcfce7"/>
  <path d="M57 102c0-40 29-72 63-72s63 32 63 72v30c0 42-27 76-63 76s-63-34-63-76v-30z" fill="#f97316"/>
  <path d="M70 65l-24-24 4 54M170 65l24-24-4 54" fill="#f97316"/>
  <path d="M75 98l28-14M165 98l-28-14M78 130l26-6M162 130l-26-6M95 54l10 36M145 54l-10 36" stroke="#111827" stroke-width="8" stroke-linecap="round"/>
  <path d="M90 142c8 24 18 40 30 48 12-8 22-24 30-48l-19 6-11 22-11-22-19-6z" fill="#fff7ed"/>
  <circle cx="96" cy="112" r="7" fill="#111827"/>
  <circle cx="144" cy="112" r="7" fill="#111827"/>
  <path d="M111 134h18l-9 11-9-11z" fill="#111827"/>
</svg>
